<svg width="529" height="502" viewBox="0 0 529 502" fill="none" xmlns="http://www.w3.org/2000/svg">
<path d="M247.941 0.47125C211.041 3.70254 174.976 20.1717 148.083 46.2305C125.152 68.3284 108.057 97.827 101.907 125.554C98.5715 140.668 98.2588 144.003 97.5292 162.974L96.7995 182.153L87.9396 187.157C83.0405 189.867 78.6626 192.473 78.0372 192.994C77.516 193.411 74.9102 195.183 72.3043 196.955C56.9817 207.065 41.3464 222.492 30.5059 238.232C9.9716 267.73 -0.0349784 299.731 0.0692568 335.066C0.0692568 355.601 4.3429 379.158 10.3885 393.125C11.2224 394.897 11.8478 396.669 11.8478 397.086C11.8478 398.65 21.5417 417.829 25.1899 423.562C34.2584 437.842 49.3725 455.041 61.3596 464.839C74.7017 475.68 94.9233 486.833 111.914 492.774C132.969 500.071 158.194 502.989 183.106 501.009C196.344 499.862 214.794 496.318 220.839 493.504C221.986 492.983 224.071 492.253 225.53 491.836C229.804 490.69 250.651 480.37 256.801 476.409C263.472 472.031 264.41 471.927 269.309 474.95C276.501 479.536 279.42 480.996 289.947 486.207C295.785 489.022 301.101 491.419 301.726 491.419C302.351 491.419 304.332 492.149 306.104 492.983C313.4 496.214 330.703 499.862 345.296 501.009C370.521 502.989 398.144 499.654 418.365 492.357C428.476 488.605 444.737 480.37 453.805 474.22C465.271 466.403 469.232 463.171 479.239 453.269C518.848 413.555 535.734 358.519 525.206 302.858C517.284 260.642 490.6 219.886 455.89 196.955C453.284 195.183 450.782 193.411 450.157 192.994C449.636 192.473 445.154 189.867 440.255 187.157L431.395 182.153L431.186 168.186C430.769 136.29 425.974 116.381 412.111 88.967C396.997 59.0515 368.332 31.3249 337.374 16.6277C319.446 8.08042 310.69 5.26607 291.198 1.5136C283.693 0.0543096 259.302 -0.466867 247.941 0.47125ZM281.817 11.9371C324.97 17.5658 363.329 39.5595 388.971 73.5401C392.515 78.335 404.815 98.8693 404.815 100.12C404.815 100.329 405.961 102.935 407.212 105.957C415.447 124.511 418.365 137.749 419.095 159.847L419.72 177.88L417.219 177.15C415.864 176.837 413.779 176.108 412.632 175.482C409.714 174.231 398.352 171.417 389.701 169.958L382.404 168.707L381.674 157.345C381.257 150.987 380.424 144.733 379.902 143.274C379.381 141.814 378.339 138.062 377.609 134.935C371.459 107.417 345.713 75.8333 318.195 61.8658C297.661 51.5465 271.081 46.8559 248.775 49.7745L242.416 50.6084L241.791 40.9145C241.374 35.5985 240.957 26.947 240.853 21.8395L240.644 12.4583L246.377 11.8329C255.863 10.7905 273.478 10.8948 281.817 11.9371ZM283.902 62.387C296.618 64.9929 304.957 67.8072 312.254 71.8724C314.755 73.2274 318.195 75.2079 319.863 76.146C329.557 81.5663 344.775 96.2634 351.967 107.104C362.808 123.365 368.958 140.98 370.104 158.596L370.73 167.248H264.201H157.777V161.723C157.777 155.156 161.947 135.873 165.074 127.742C175.393 101.371 198.012 78.8561 225.634 67.4945C234.911 63.742 253.569 60.0938 263.576 59.9896C268.475 59.9896 276.814 60.9277 283.902 62.387ZM382.196 180.277C383.759 181.319 383.134 183.091 375.108 199.352L366.352 217.281H268.788C173.308 217.281 171.223 217.281 169.556 215.196C167.158 212.381 163.302 201.958 160.383 190.388L157.986 180.59L160.279 179.756C163.51 178.297 379.798 178.922 382.196 180.277ZM99.7181 198.727C100.135 200.082 101.282 204.877 102.428 209.463C104.617 218.427 107.119 226.036 108.787 228.955C109.516 230.31 109.308 231.144 107.432 232.395C106.181 233.333 102.011 236.251 98.2588 238.961C63.6527 263.874 45.9328 303.692 50.2064 347.158C51.9784 365.295 58.1283 383.64 67.1967 397.712L71.1577 403.757L55.6266 413.66C47.0793 419.184 39.8871 423.666 39.5744 423.666C38.7405 423.666 29.2551 407.301 25.6069 399.484C16.7469 380.617 11.8478 357.79 11.8478 334.962C11.8478 322.245 14.0368 303.275 16.4342 295.457C17.1638 292.851 18.4147 288.577 19.1443 285.763C19.8739 283.053 20.9163 280.551 21.3332 280.239C21.8544 279.926 22.2714 278.884 22.2714 277.737C22.2714 275.548 30.7144 258.766 36.0304 250.532C46.5582 234.167 64.1739 216.238 80.7473 205.189C94.9233 195.808 98.6758 194.557 99.7181 198.727ZM161.947 225.828C164.552 230.518 168.201 236.981 170.077 240.108C173.412 245.737 176.435 250.844 181.126 259.183C182.377 261.268 192.904 279.717 204.683 300.252C216.462 320.682 227.198 339.34 228.449 341.737C229.804 344.031 232.201 348.096 233.869 350.702C235.432 353.307 240.644 362.167 245.335 370.506C250.13 378.845 254.82 386.871 255.863 388.331C257.739 391.041 257.739 391.041 253.986 396.669C249.608 403.132 233.452 419.497 231.471 419.497C230.638 419.497 228.761 417.308 227.198 414.494C225.739 411.783 223.445 407.823 222.09 405.738C220.839 403.653 213.96 391.77 206.768 379.471C199.575 367.067 192.696 355.184 191.445 352.995C190.194 350.91 188.318 347.679 187.276 345.803C185.087 341.946 151.002 282.428 145.477 273.046C143.497 269.607 140.787 264.916 139.536 262.623C138.285 260.33 136.305 256.994 135.262 255.118C126.611 240.733 118.168 223.847 118.168 220.929C118.168 219.157 128.696 218.114 150.481 217.489L157.256 217.281L161.947 225.828ZM385.531 231.144C388.971 231.978 394.287 233.437 397.205 234.584C403.564 236.773 403.564 237.085 398.144 246.362C396.372 249.385 393.453 254.597 391.681 257.828C389.909 261.059 386.573 266.792 384.385 270.545C374.482 287.431 354.99 321.203 351.655 327.144C349.674 330.793 347.485 334.441 346.756 335.275C346.13 336.004 344.984 337.881 344.358 339.236C343.837 340.695 342.378 343.197 341.335 344.969C340.293 346.636 331.329 362.167 321.531 379.366C304.957 408.239 293.804 426.376 290.469 429.712C289.739 430.442 288.697 431.901 288.175 432.839C287.654 433.777 287.029 434.403 286.716 434.09C284.631 431.692 266.182 401.777 266.182 400.839C266.182 399.901 269.1 394.585 276.605 381.972C277.126 381.138 282.13 372.383 287.654 362.689C293.179 352.891 298.495 343.509 299.537 341.842C300.475 340.07 306.417 330.063 312.566 319.431C318.821 308.799 332.267 285.346 342.69 267.313C353.114 249.177 362.599 233.02 363.85 231.248C366.039 228.121 366.143 228.121 372.71 228.851C376.358 229.372 382.091 230.31 385.531 231.144ZM127.757 265.75C142.038 290.766 143.914 293.893 146.207 297.75C148.5 301.503 177.582 352.161 180.188 356.956C181.334 359.04 183.732 363.001 185.504 365.92C187.276 368.734 194.259 380.617 201.035 392.396C207.706 404.174 214.898 416.474 216.879 419.81C218.755 423.041 220.11 426.272 219.797 426.793C218.234 429.295 203.641 435.236 191.132 438.468C180.5 441.282 158.09 441.699 147.875 439.51C124.213 434.194 109.62 426.481 92.8386 410.22C75.2229 393.125 63.9655 370.194 61.568 346.22C58.441 315.47 67.5094 287.744 88.6692 263.457C96.7995 254.076 111.601 242.714 114.415 243.652C114.832 243.756 120.878 253.763 127.757 265.75ZM425.245 250.219C452.033 270.545 467.147 300.981 467.356 334.754C467.46 364.148 455.577 391.562 433.584 412.513C401.792 442.637 352.176 449.829 313.088 429.92C307.563 427.106 307.25 426.168 310.273 421.79C312.462 418.559 330.391 387.497 339.98 370.506C341.44 367.9 343.316 364.669 344.358 363.21C345.713 361.229 373.127 313.281 386.678 289.411C387.824 287.327 389.701 284.095 390.847 282.219C391.889 280.447 397.414 270.857 403.043 261.059C414.925 240.525 413.466 241.255 425.245 250.219ZM486.952 390.832L502.9 398.546L501.441 401.985C498.731 408.344 490.183 421.894 483.512 430.546C461.519 458.585 432.75 477.347 398.039 486.103C370.209 493.087 335.915 491.315 308.397 481.413C295.576 476.826 275.354 466.09 275.459 464.005C275.459 463.588 281.192 457.126 288.28 449.829L301.101 436.383L306.834 439.51C313.713 443.158 323.511 446.911 334.664 449.934C346.964 453.269 374.482 453.165 387.616 449.829C392.828 448.578 398.456 446.806 400.333 445.973C402.105 445.139 403.877 444.513 404.398 444.513C404.815 444.513 407.733 443.262 410.965 441.803C433.271 431.171 456.203 408.969 466.313 387.914C467.668 385.203 469.232 383.015 469.962 383.015C470.587 383.015 478.196 386.559 486.952 390.832Z" fill="#2773AB"/>
</svg>
