<svg width="1079" height="881" viewBox="0 0 1079 881" fill="none" xmlns="http://www.w3.org/2000/svg">
<path d="M519.941 0.471311C483.041 3.7026 446.976 20.1718 420.083 46.2306C397.152 68.3284 380.057 97.827 373.907 125.554C370.572 140.668 370.259 144.003 369.529 162.974L368.8 182.153L359.94 187.157C355.04 189.867 350.663 192.473 350.037 192.994C349.516 193.411 346.91 195.183 344.304 196.955C328.982 207.066 313.346 222.492 302.506 238.232C281.972 267.73 271.965 299.731 272.069 335.066C272.069 355.601 276.343 379.158 282.389 393.125C283.222 394.897 283.848 396.669 283.848 397.086C283.848 398.65 293.542 417.829 297.19 423.562C306.258 437.842 321.373 455.041 333.36 464.839C346.702 475.68 366.923 486.833 383.914 492.774C404.969 500.071 430.194 502.989 455.106 501.009C468.344 499.862 486.794 496.318 492.839 493.504C493.986 492.983 496.071 492.253 497.53 491.836C501.804 490.69 522.651 480.37 528.801 476.409C535.472 472.031 536.41 471.927 541.309 474.95C548.501 479.536 551.42 480.996 561.947 486.207C567.785 489.022 573.101 491.419 573.726 491.419C574.351 491.419 576.332 492.149 578.104 492.983C585.4 496.214 602.703 499.862 617.296 501.009C642.521 502.989 670.144 499.654 690.365 492.357C700.476 488.605 716.737 480.37 725.805 474.22C737.271 466.403 741.232 463.171 751.239 453.269C790.848 413.556 807.734 358.519 797.206 302.858C789.284 260.642 762.6 219.886 727.89 196.955C725.284 195.183 722.782 193.411 722.157 192.994C721.636 192.473 717.154 189.867 712.255 187.157L703.395 182.153L703.186 168.186C702.769 136.29 697.974 116.381 684.111 88.967C668.997 59.0515 640.332 31.3249 609.374 16.6278C591.446 8.08048 582.69 5.26613 563.198 1.51366C555.693 0.0543706 531.302 -0.466806 519.941 0.471311ZM553.817 11.9372C596.97 17.5659 635.329 39.5595 660.971 73.5402C664.515 78.335 676.815 98.8694 676.815 100.12C676.815 100.329 677.961 102.935 679.212 105.957C687.447 124.511 690.365 137.749 691.095 159.847L691.72 177.88L689.219 177.15C687.864 176.837 685.779 176.108 684.632 175.482C681.714 174.231 670.352 171.417 661.701 169.958L654.404 168.707L653.674 157.345C653.257 150.987 652.424 144.733 651.902 143.274C651.381 141.814 650.339 138.062 649.609 134.935C643.459 107.417 617.713 75.8334 590.195 61.8659C569.661 51.5466 543.081 46.856 520.775 49.7746L514.416 50.6085L513.791 40.9146C513.374 35.5986 512.957 26.9471 512.853 21.8395L512.644 12.4584L518.377 11.833C527.863 10.7906 545.478 10.8948 553.817 11.9372ZM555.902 62.387C568.618 64.9929 576.957 67.8073 584.254 71.8724C586.755 73.2275 590.195 75.208 591.863 76.1461C601.557 81.5663 616.775 96.2635 623.967 107.104C634.808 123.365 640.958 140.98 642.104 158.596L642.73 167.248H536.201H429.777V161.723C429.777 155.156 433.947 135.873 437.074 127.743C447.393 101.371 470.012 78.8562 497.634 67.4946C506.911 63.7421 525.569 60.0939 535.576 59.9896C540.475 59.9896 548.814 60.9277 555.902 62.387ZM654.196 180.277C655.759 181.319 655.134 183.091 647.108 199.352L638.352 217.281H540.788C445.308 217.281 443.223 217.281 441.556 215.196C439.158 212.382 435.302 201.958 432.383 190.388L429.986 180.59L432.279 179.756C435.51 178.297 651.798 178.922 654.196 180.277ZM371.718 198.727C372.135 200.082 373.282 204.877 374.428 209.463C376.617 218.427 379.119 226.036 380.787 228.955C381.516 230.31 381.308 231.144 379.432 232.395C378.181 233.333 374.011 236.251 370.259 238.962C335.653 263.874 317.933 303.692 322.206 347.158C323.978 365.295 330.128 383.64 339.197 397.712L343.158 403.757L327.627 413.66C319.079 419.184 311.887 423.666 311.574 423.666C310.741 423.666 301.255 407.301 297.607 399.484C288.747 380.617 283.848 357.79 283.848 334.962C283.848 322.245 286.037 303.275 288.434 295.457C289.164 292.851 290.415 288.577 291.144 285.763C291.874 283.053 292.916 280.551 293.333 280.239C293.854 279.926 294.271 278.884 294.271 277.737C294.271 275.548 302.714 258.766 308.03 250.532C318.558 234.167 336.174 216.238 352.747 205.189C366.923 195.808 370.676 194.557 371.718 198.727ZM433.947 225.828C436.552 230.518 440.201 236.981 442.077 240.108C445.412 245.737 448.435 250.844 453.126 259.183C454.377 261.268 464.904 279.717 476.683 300.252C488.462 320.682 499.198 339.34 500.449 341.737C501.804 344.031 504.201 348.096 505.869 350.702C507.432 353.308 512.644 362.168 517.335 370.506C522.13 378.845 526.82 386.871 527.863 388.331C529.739 391.041 529.739 391.041 525.986 396.669C521.608 403.132 505.452 419.497 503.471 419.497C502.638 419.497 500.761 417.308 499.198 414.494C497.739 411.784 495.445 407.823 494.09 405.738C492.839 403.653 485.96 391.77 478.768 379.471C471.575 367.067 464.696 355.184 463.445 352.995C462.194 350.91 460.318 347.679 459.276 345.803C457.087 341.946 423.002 282.428 417.477 273.046C415.497 269.607 412.787 264.916 411.536 262.623C410.285 260.33 408.305 256.994 407.262 255.118C398.611 240.734 390.168 223.847 390.168 220.929C390.168 219.157 400.696 218.114 422.481 217.489L429.256 217.281L433.947 225.828ZM657.531 231.144C660.971 231.978 666.287 233.437 669.205 234.584C675.564 236.773 675.564 237.085 670.144 246.362C668.372 249.385 665.453 254.597 663.681 257.828C661.909 261.059 658.573 266.792 656.385 270.545C646.482 287.431 626.99 321.203 623.655 327.145C621.674 330.793 619.485 334.441 618.756 335.275C618.13 336.005 616.984 337.881 616.358 339.236C615.837 340.695 614.378 343.197 613.335 344.969C612.293 346.637 603.329 362.168 593.531 379.366C576.957 408.24 565.804 426.376 562.469 429.712C561.739 430.442 560.697 431.901 560.175 432.839C559.654 433.777 559.029 434.403 558.716 434.09C556.631 431.692 538.182 401.777 538.182 400.839C538.182 399.901 541.1 394.585 548.605 381.972C549.126 381.138 554.13 372.383 559.654 362.689C565.179 352.891 570.495 343.509 571.537 341.842C572.475 340.07 578.417 330.063 584.566 319.431C590.821 308.799 604.267 285.346 614.69 267.314C625.114 249.177 634.599 233.02 635.85 231.248C638.039 228.121 638.143 228.121 644.71 228.851C648.358 229.372 654.091 230.31 657.531 231.144ZM399.757 265.75C414.038 290.766 415.914 293.893 418.207 297.75C420.5 301.503 449.582 352.161 452.188 356.956C453.334 359.04 455.732 363.001 457.504 365.92C459.276 368.734 466.259 380.617 473.035 392.396C479.706 404.174 486.898 416.474 488.879 419.81C490.755 423.041 492.11 426.272 491.797 426.793C490.234 429.295 475.641 435.236 463.132 438.468C452.5 441.282 430.09 441.699 419.875 439.51C396.213 434.194 381.62 426.481 364.839 410.22C347.223 393.125 335.965 370.194 333.568 346.22C330.441 315.47 339.509 287.744 360.669 263.457C368.8 254.076 383.601 242.714 386.415 243.652C386.832 243.756 392.878 253.763 399.757 265.75ZM697.245 250.219C724.033 270.545 739.147 300.981 739.356 334.754C739.46 364.148 727.577 391.562 705.584 412.513C673.792 442.637 624.176 449.829 585.088 429.92C579.563 427.106 579.25 426.168 582.273 421.79C584.462 418.559 602.391 387.497 611.98 370.506C613.44 367.9 615.316 364.669 616.358 363.21C617.713 361.229 645.127 313.281 658.678 289.411C659.824 287.327 661.701 284.095 662.847 282.219C663.889 280.447 669.414 270.858 675.043 261.059C686.925 240.525 685.466 241.255 697.245 250.219ZM758.952 390.832L774.9 398.546L773.441 401.985C770.731 408.344 762.183 421.894 755.512 430.546C733.519 458.585 704.75 477.347 670.039 486.103C642.209 493.087 607.915 491.315 580.397 481.413C567.576 476.826 547.354 466.09 547.459 464.005C547.459 463.588 553.192 457.126 560.28 449.829L573.101 436.383L578.834 439.51C585.713 443.158 595.511 446.911 606.664 449.934C618.964 453.269 646.482 453.165 659.616 449.829C664.828 448.579 670.456 446.807 672.333 445.973C674.105 445.139 675.877 444.513 676.398 444.513C676.815 444.513 679.733 443.263 682.965 441.803C705.271 431.171 728.203 408.969 738.313 387.914C739.668 385.204 741.232 383.015 741.962 383.015C742.587 383.015 750.196 386.559 758.952 390.832Z" fill="#2773AB"/>
<path d="M474.807 583.667C472.618 584.606 470.846 586.482 469.908 588.671C468.344 592.527 451.562 673.205 446.559 701.453C444.787 711.147 442.39 726.157 441.243 734.808C439.888 743.981 438.22 751.903 437.074 754.196C434.468 759.095 423.627 772.854 419.875 775.773C415.184 779.525 414.35 778.796 413.621 770.353C412.787 761.388 414.038 752.216 418.416 736.997C422.272 723.447 422.376 717.505 418.728 714.587C415.288 711.877 406.012 709.792 401.321 710.73C394.754 711.981 392.148 715.733 387.249 731.473C380.265 753.884 373.594 767.955 365.047 777.962C361.607 782.131 359.94 779.213 358.793 766.496C356.813 742.626 363.171 715.733 375.471 696.658C381.308 687.59 387.666 680.085 389.647 680.085C390.376 680.085 392.253 681.544 393.712 683.316C395.797 685.714 396.422 687.694 396.422 691.134C396.422 697.284 397.673 699.473 402.885 702.079C406.324 703.851 408.513 704.163 413.412 703.851C418.937 703.434 420.083 702.912 422.793 699.89C425.504 696.867 425.816 695.929 425.191 691.968C424.357 685.505 421.334 680.293 415.393 674.665C403.406 663.407 389.438 660.176 374.324 665.075C368.07 667.16 353.477 680.606 346.91 690.509C338.78 702.808 330.233 724.593 327.522 740.229C326.48 746.274 325.646 747.942 321.998 751.799C317.516 756.594 305.842 766.079 305.216 765.454C304.799 764.932 305.425 761.18 309.802 736.685C311.574 726.782 313.034 717.505 313.034 716.15C313.034 710.417 301.151 704.997 293.229 707.186C286.662 708.958 283.744 712.815 277.177 729.18C269.985 747.108 265.294 755.76 259.874 761.493C255.079 766.496 252.577 766.496 250.805 761.388C248.825 755.656 249.242 747.421 252.16 734.496C258.727 705.206 267.796 688.737 281.138 681.753C284.786 679.772 284.994 679.772 286.975 681.649C288.226 682.691 289.998 685.609 291.04 688.007C294.688 696.241 304.278 698.013 313.034 692.176C317.829 689.049 318.141 686.965 315.223 680.606C310.532 670.183 295.001 662.365 279.366 662.365C270.923 662.365 266.232 664.137 258.102 670.391C238.714 685.088 226.31 705.101 221.203 729.597C220.16 734.704 219.222 741.063 219.222 743.668C219.222 749.089 217.554 752.007 209.841 760.763C202.023 769.623 196.186 774.209 185.45 779.734C176.903 784.007 175.443 784.529 170.44 784.112C166.687 783.799 164.29 782.861 162.518 781.297C156.681 775.877 152.928 760.242 154.075 747.004C154.909 738.457 155.847 737.414 163.248 737.414C179.508 737.414 200.981 723.03 208.59 707.082C212.238 699.473 214.219 688.945 213.385 682.691C210.987 667.056 191.391 656.528 174.192 661.74C168.147 663.512 158.453 670.183 152.511 676.541C141.567 688.32 130.414 709.167 125.723 726.678C123.221 735.747 122.909 738.769 122.909 753.05C123.013 772.854 124.576 777.962 132.915 786.301C153.137 806.522 192.955 805.063 221.098 783.069L227.665 777.962L234.128 780.255C238.089 781.61 244.03 782.757 249.45 783.069C258.102 783.486 261.333 782.861 271.652 778.587C273.32 777.858 273.424 778.17 272.799 780.776C271.757 785.258 271.131 785.884 254.141 797.141C225.789 816.112 212.968 832.373 212.968 849.78C212.968 860.933 219.847 869.272 234.857 876.464C240.903 879.383 242.675 879.695 251.014 879.695C259.353 879.695 261.125 879.383 267.17 876.464C275.509 872.503 281.972 866.041 286.037 857.806C289.998 849.78 294.584 831.33 297.398 812.359C298.754 802.978 300.317 796.411 301.359 794.952C302.298 793.597 308.969 788.907 316.057 784.424L329.086 776.19L331.066 780.047C334.298 786.092 341.177 792.555 348.474 796.099C354.624 799.122 356.187 799.434 364.63 799.434C375.054 799.434 380.37 797.558 387.666 791.2L391.523 787.864L396.63 791.2C408.409 799.226 426.65 798.183 438.846 788.907L442.285 786.301L446.142 790.157C448.227 792.242 453.022 795.473 456.774 797.245C463.132 800.268 464.488 800.477 474.598 800.477C488.983 800.372 494.612 798.288 504.618 789.011L511.915 782.235L515.354 785.467C524.735 794.223 536.827 799.017 549.648 799.017C565.908 799.017 573.205 796.203 582.065 786.613C598.013 769.519 605.414 750.861 606.664 725.219L607.29 712.398L603.537 708.854C599.472 705.101 591.967 701.974 586.755 701.974C584.983 701.974 581.961 702.912 579.98 704.163L576.436 706.248L577.166 712.919C577.687 718.444 577.27 721.675 574.143 733.662C568.097 757.428 562.573 768.998 552.879 778.483L547.771 783.591L545.166 780.985C539.537 775.356 535.472 758.053 536.41 743.773C537.139 733.245 543.081 708.75 547.042 700.202C551.732 689.883 558.195 683.421 565.491 681.649C568.097 681.023 568.41 681.232 569.452 685.088C571.224 691.759 578.938 696.763 587.172 696.763C590.925 696.658 598.326 693.114 599.576 690.717C602.182 685.818 600.306 679.877 594.26 674.144C584.15 664.45 562.052 662.157 546.625 669.245C537.869 673.205 530.468 679.46 523.38 688.841C512.644 703.017 507.745 716.255 504.514 739.708C503.159 749.506 503.055 749.61 495.445 760.45C484.084 776.294 474.181 785.258 471.054 782.235C470.325 781.506 469.804 775.773 469.595 767.33C469.178 750.965 471.367 735.434 477.725 708.228C484.084 681.023 489.712 654.13 494.299 628.489C498.885 603.055 500.136 592.84 499.198 589.609C498.781 588.462 496.071 586.273 493.152 584.814C487.002 581.791 480.227 581.374 474.807 583.667ZM185.033 685.193C184.616 692.697 179.821 702.6 173.671 709.375C168.147 715.316 161.267 720.424 160.225 719.382C159.391 718.548 165.854 702.808 169.815 696.137C173.88 689.362 182.635 679.877 184.303 680.398C184.824 680.71 185.241 682.795 185.033 685.193ZM266.128 816.32C266.128 820.073 262.897 836.646 260.916 843.005C259.144 848.529 253.098 860.203 250.597 862.809C249.138 864.373 246.219 862.184 244.03 858.015C241.32 852.594 241.945 843.943 245.802 835.708C249.45 827.786 252.056 824.347 258.727 819.135C265.19 814.027 266.128 813.715 266.128 816.32Z" fill="#2773AB"/>
<path d="M1026.52 583.042C1021.31 585.231 1020.48 587.524 1012.87 625.361C1002.03 678.313 995.774 711.981 993.169 730.639C989.937 753.05 988.999 755.447 978.263 768.164C972.113 775.46 967.318 779.108 965.859 777.649C965.338 777.232 965.025 771.603 965.025 765.245C965.129 755.134 965.65 751.695 968.986 739.395C973.677 722.092 973.885 717.505 970.133 714.587C966.693 711.877 957.416 709.792 952.725 710.73C947.618 711.668 943.031 716.255 941.572 721.883C938.341 734.183 931.461 752.528 926.875 761.493C921.976 770.978 915.409 780.151 913.429 780.151C911.448 780.151 909.989 770.665 909.989 757.219C909.989 735.538 915.409 715.316 925.833 697.909C930.627 689.883 939.07 680.085 941.051 680.085C941.781 680.085 943.657 681.544 945.116 683.316C947.201 685.818 947.826 687.59 947.826 691.759C947.826 696.241 948.243 697.388 951.058 699.994C954.706 703.329 959.396 704.58 966.276 703.746C979.722 702.287 980.035 686.652 966.797 674.665C954.393 663.407 940.738 660.28 925.624 665.075C919.683 667.056 906.341 679.147 899.253 689.049C891.643 699.681 881.95 723.343 879.031 738.248C877.884 743.668 876.738 745.857 870.275 753.779C861.311 764.724 849.637 774.731 840.672 779.213C835.044 781.923 833.167 782.444 828.685 781.923C824.307 781.506 822.848 780.88 820.034 777.858C818.262 775.877 815.656 771.499 814.405 768.06C812.425 762.744 812.112 760.033 812.112 748.776C812.32 729.284 815.447 717.088 825.037 698.535C829.623 689.675 840.36 677.479 842.861 678.209C843.591 678.521 844.216 681.023 844.425 684.671C844.842 692.489 841.402 703.538 837.233 707.499C833.689 710.939 833.584 711.46 836.086 714.378C838.483 717.401 844.633 718.756 851.409 717.61C861.832 715.942 868.399 710.939 872.256 701.662C874.445 696.346 874.236 684.776 871.839 679.564C869.441 674.248 861.415 667.056 854.119 663.616C849.22 661.323 847.552 661.114 840.568 661.635C827.226 662.678 822.952 664.45 813.363 673.518C800.125 686.026 792.62 697.805 786.991 715.004C783.03 726.991 780.946 736.685 780.112 746.9C779.382 755.343 778.965 756.385 774.379 763.265C771.669 767.33 768.229 771.708 766.665 773.063C762.392 776.607 754.157 780.776 753.219 779.734C751.864 778.379 752.489 758.366 754.366 746.274C755.408 739.916 758.431 724.698 761.245 712.398C767.916 683.212 768.437 678.417 765.415 674.665C759.682 667.264 741.44 667.681 738.313 675.186C736.958 678.417 725.076 730.326 723.616 739.603C722.678 745.336 721.74 748.046 719.655 750.235C715.173 755.134 701.414 765.871 701.101 764.828C700.893 764.203 702.665 752.945 704.958 739.708C709.753 712.711 709.753 712.815 702.561 709.062C693.909 704.58 683.903 706.978 679.525 714.378C678.378 716.359 674.834 724.385 671.499 732.411C662.951 753.258 654.821 765.558 649.713 765.558C645.127 765.558 644.085 751.173 647.525 735.747C654.717 704.163 662.743 689.466 677.232 681.648C681.505 679.355 682.86 680.085 685.987 686.652C688.802 692.593 691.512 694.782 696.932 695.408C700.163 695.824 702.561 695.408 705.584 693.844C711.525 690.821 712.672 689.153 711.942 684.15C710.378 672.58 692.763 662.261 674.73 662.365C666.078 662.469 661.909 664.033 654.3 669.87C632.41 686.86 620.006 708.437 615.733 736.685C612.918 754.613 615.107 768.581 621.778 775.669C625.427 779.525 634.599 782.444 645.023 782.965C653.257 783.486 655.238 783.174 661.492 780.88C666.183 779.004 668.476 778.587 668.476 779.421C668.372 784.007 666.391 785.988 650.235 796.828C638.56 804.646 631.16 810.587 626.052 815.903C612.71 829.975 609.062 837.063 608.853 849.571C608.645 858.015 610.417 861.767 617.296 868.021C638.769 887.409 669.101 882.822 681.401 858.327C685.57 849.988 690.469 830.288 693.388 810.692C694.535 803.083 695.89 796.099 696.411 795.161C696.828 794.327 702.769 790.157 709.44 785.884L721.636 778.17L723.095 781.61C725.388 787.03 730.6 792.242 736.437 794.848C741.024 796.933 743.629 797.245 751.864 797.245C760.307 797.141 763.121 796.62 770.731 793.806C775.734 791.929 781.988 789.115 784.594 787.343C787.304 785.675 789.701 784.32 790.014 784.32C790.327 784.32 792.724 786.196 795.33 788.49C816.177 806.835 849.532 804.542 876.946 782.861L881.428 779.317L884.243 783.069C888.308 788.698 894.354 793.701 900.92 796.724C905.819 799.017 908.113 799.434 916.034 799.434C926.562 799.434 931.67 797.558 939.279 791.095C943.24 787.656 943.448 787.551 945.116 789.428C948.869 793.597 957.207 796.203 966.589 796.203C976.699 796.307 981.077 795.056 988.478 789.949L993.794 786.301L996.4 789.428C997.859 791.2 1002.55 794.327 1006.82 796.516C1013.49 799.747 1016 800.372 1023.29 800.789C1042.47 801.832 1056.02 793.389 1070.51 771.395C1076.97 761.597 1079.37 755.864 1078.95 751.173C1078.64 747.734 1078.12 747.004 1073.95 744.919C1068.53 742.105 1062.69 742.313 1058.42 745.545C1056.96 746.587 1052.37 752.424 1048.2 758.366C1039.66 770.77 1032.26 778.9 1027.05 781.402C1022.25 783.799 1021.31 782.548 1020.37 772.959C1019.02 759.929 1022.56 735.225 1030.17 702.912C1038.62 667.473 1049.04 613.374 1050.6 597.114C1051.23 589.817 1051.23 589.713 1048 587.003C1042.78 582.625 1032.26 580.749 1026.52 583.042ZM661.701 818.926C659.303 834.562 656.697 843.943 652.945 851.552C650.652 856.243 647.733 860.933 646.586 861.975C644.293 864.06 644.293 864.06 641.896 861.142C638.039 856.764 637.205 852.073 638.769 844.36C640.437 836.229 643.355 830.392 648.463 824.763C652.528 820.281 659.72 814.548 661.388 814.548C662.013 814.548 662.117 816.425 661.701 818.926Z" fill="#2773AB"/>
<path d="M47.6508 590.13C43.6899 590.86 41.8137 594.195 40.3544 603.159C33.996 640.371 27.1165 675.811 20.0285 707.707C10.5431 750.548 9.0838 756.489 3.24662 776.294C-1.65243 793.389 -1.44396 794.848 6.89486 800.164C11.4812 803.083 13.0447 803.499 18.9861 803.604C22.8428 803.604 31.9113 802.249 39.4162 800.581C52.0287 797.767 54.3219 797.558 72.2503 797.871C110.192 798.392 111.13 798.288 115.091 796.62C125.619 792.034 117.071 783.382 98.3092 779.525C86.9475 777.232 61.8268 777.962 46.8169 781.089C41.084 782.235 36.185 782.965 35.8722 782.652C35.5595 782.34 39.4162 765.662 44.4195 745.44C57.6574 692.385 64.4327 659.446 69.0191 626.404C72.8758 598.469 72.8758 599.198 68.9148 595.237C64.0158 590.338 56.1981 588.462 47.6508 590.13Z" fill="#2773AB"/>
<path d="M762.392 614.417C754.366 616.397 748.737 623.381 748.737 631.616C748.737 637.453 750.717 640.371 756.346 642.456C764.06 645.375 771.356 642.977 778.444 635.055C785.428 627.238 784.907 620.567 777.089 616.606C772.086 614.104 766.874 613.27 762.392 614.417Z" fill="#2773AB"/>
</svg>
